<svg xmlns="http://www.w3.org/2000/svg" xmlns:xlink="http://www.w3.org/1999/xlink" width="500" zoomAndPan="magnify" viewBox="0 0 375 374.999991" height="500" preserveAspectRatio="xMidYMid meet" version="1.0"><defs><clipPath id="0a58548bc0"><path d="M 0 98.4375 L 275.933594 98.4375 L 275.933594 276.5625 L 0 276.5625 Z M 0 98.4375 " clip-rule="nonzero"/></clipPath><clipPath id="39bd3b615d"><path d="M 186.871094 98.4375 C 236.058594 98.4375 275.933594 138.3125 275.933594 187.5 C 275.933594 236.6875 236.058594 276.5625 186.871094 276.5625 L 8.746094 276.5625 C -40.441406 276.5625 -80.316406 236.6875 -80.316406 187.5 C -80.316406 138.3125 -40.441406 98.4375 8.746094 98.4375 Z M 186.871094 98.4375 " clip-rule="nonzero"/></clipPath><clipPath id="b073578d87"><path d="M 116.480469 116.480469 L 258.519531 116.480469 L 258.519531 258.519531 L 116.480469 258.519531 Z M 116.480469 116.480469 " clip-rule="nonzero"/></clipPath><clipPath id="c1ac88a83e"><path d="M 187.5 116.480469 C 148.277344 116.480469 116.480469 148.277344 116.480469 187.5 C 116.480469 226.722656 148.277344 258.519531 187.5 258.519531 C 226.722656 258.519531 258.519531 226.722656 258.519531 187.5 C 258.519531 148.277344 226.722656 116.480469 187.5 116.480469 Z M 187.5 116.480469 " clip-rule="nonzero"/></clipPath></defs><rect x="-37.5" width="450" fill="#ffffff" y="-37.499999" height="449.999989" fill-opacity="1"/><rect x="-37.5" width="450" fill="#ffffff" y="-37.499999" height="449.999989" fill-opacity="1"/><g clip-path="url(#0a58548bc0)"><g clip-path="url(#39bd3b615d)"><path fill="#000000" d="M -80.316406 98.4375 L 275.933594 98.4375 L 275.933594 276.5625 L -80.316406 276.5625 Z M -80.316406 98.4375 " fill-opacity="1" fill-rule="nonzero"/></g></g><g clip-path="url(#b073578d87)"><g clip-path="url(#c1ac88a83e)"><path fill="#ff3131" d="M 116.480469 116.480469 L 258.519531 116.480469 L 258.519531 258.519531 L 116.480469 258.519531 Z M 116.480469 116.480469 " fill-opacity="1" fill-rule="nonzero"/></g></g></svg>